<mxfile host="app.diagrams.net" agent="Mozilla/5.0 (Macintosh; Intel Mac OS X 10_15_7) AppleWebKit/537.36 (KHTML, like Gecko) Chrome/140.0.0.0 Safari/537.36" version="28.2.3">
  <diagram name="Page-1" id="H7ZthcMPI-sFl2fAVGKp">
    <mxGraphModel dx="930" dy="563" grid="1" gridSize="10" guides="1" tooltips="1" connect="1" arrows="1" fold="1" page="1" pageScale="1" pageWidth="850" pageHeight="1100" math="0" shadow="0">
      <root>
        <mxCell id="0" />
        <mxCell id="1" parent="0" />
        <mxCell id="4qOC0WbRyg2mQ6TqrtUy-12" style="edgeStyle=orthogonalEdgeStyle;rounded=0;orthogonalLoop=1;jettySize=auto;html=1;" edge="1" parent="1" source="4qOC0WbRyg2mQ6TqrtUy-11">
          <mxGeometry relative="1" as="geometry">
            <mxPoint x="380" y="160" as="targetPoint" />
          </mxGeometry>
        </mxCell>
        <mxCell id="4qOC0WbRyg2mQ6TqrtUy-11" value="User presses&lt;div&gt;signup button&lt;/div&gt;" style="rounded=0;whiteSpace=wrap;html=1;" vertex="1" parent="1">
          <mxGeometry x="320" y="40" width="120" height="60" as="geometry" />
        </mxCell>
        <mxCell id="4qOC0WbRyg2mQ6TqrtUy-14" style="edgeStyle=orthogonalEdgeStyle;rounded=0;orthogonalLoop=1;jettySize=auto;html=1;" edge="1" parent="1" source="4qOC0WbRyg2mQ6TqrtUy-13">
          <mxGeometry relative="1" as="geometry">
            <mxPoint x="380" y="280" as="targetPoint" />
          </mxGeometry>
        </mxCell>
        <mxCell id="4qOC0WbRyg2mQ6TqrtUy-13" value="Create Username&lt;div&gt;or&lt;/div&gt;&lt;div&gt;attach email&lt;/div&gt;" style="rounded=0;whiteSpace=wrap;html=1;" vertex="1" parent="1">
          <mxGeometry x="320" y="160" width="120" height="60" as="geometry" />
        </mxCell>
        <mxCell id="4qOC0WbRyg2mQ6TqrtUy-16" style="edgeStyle=orthogonalEdgeStyle;rounded=0;orthogonalLoop=1;jettySize=auto;html=1;" edge="1" parent="1" source="4qOC0WbRyg2mQ6TqrtUy-15">
          <mxGeometry relative="1" as="geometry">
            <mxPoint x="380" y="400" as="targetPoint" />
          </mxGeometry>
        </mxCell>
        <mxCell id="4qOC0WbRyg2mQ6TqrtUy-15" value="Create Password" style="rounded=0;whiteSpace=wrap;html=1;" vertex="1" parent="1">
          <mxGeometry x="320" y="280" width="120" height="60" as="geometry" />
        </mxCell>
        <mxCell id="4qOC0WbRyg2mQ6TqrtUy-22" style="edgeStyle=orthogonalEdgeStyle;rounded=0;orthogonalLoop=1;jettySize=auto;html=1;entryX=1;entryY=0.5;entryDx=0;entryDy=0;exitX=1;exitY=0.5;exitDx=0;exitDy=0;" edge="1" parent="1" source="4qOC0WbRyg2mQ6TqrtUy-17" target="4qOC0WbRyg2mQ6TqrtUy-11">
          <mxGeometry relative="1" as="geometry">
            <Array as="points">
              <mxPoint x="460" y="440" />
              <mxPoint x="460" y="70" />
            </Array>
          </mxGeometry>
        </mxCell>
        <mxCell id="4qOC0WbRyg2mQ6TqrtUy-26" style="edgeStyle=orthogonalEdgeStyle;rounded=0;orthogonalLoop=1;jettySize=auto;html=1;entryX=0.5;entryY=0;entryDx=0;entryDy=0;" edge="1" parent="1" source="4qOC0WbRyg2mQ6TqrtUy-17" target="4qOC0WbRyg2mQ6TqrtUy-24">
          <mxGeometry relative="1" as="geometry" />
        </mxCell>
        <mxCell id="4qOC0WbRyg2mQ6TqrtUy-17" value="Success" style="rhombus;whiteSpace=wrap;html=1;" vertex="1" parent="1">
          <mxGeometry x="340" y="400" width="80" height="80" as="geometry" />
        </mxCell>
        <mxCell id="4qOC0WbRyg2mQ6TqrtUy-27" style="edgeStyle=orthogonalEdgeStyle;rounded=0;orthogonalLoop=1;jettySize=auto;html=1;" edge="1" parent="1" source="4qOC0WbRyg2mQ6TqrtUy-24">
          <mxGeometry relative="1" as="geometry">
            <mxPoint x="600" y="550" as="targetPoint" />
          </mxGeometry>
        </mxCell>
        <mxCell id="4qOC0WbRyg2mQ6TqrtUy-24" value="New unposted account" style="rounded=0;whiteSpace=wrap;html=1;" vertex="1" parent="1">
          <mxGeometry x="320" y="520" width="120" height="60" as="geometry" />
        </mxCell>
        <mxCell id="4qOC0WbRyg2mQ6TqrtUy-29" style="edgeStyle=orthogonalEdgeStyle;rounded=0;orthogonalLoop=1;jettySize=auto;html=1;" edge="1" parent="1" source="4qOC0WbRyg2mQ6TqrtUy-28">
          <mxGeometry relative="1" as="geometry">
            <mxPoint x="660" y="430" as="targetPoint" />
          </mxGeometry>
        </mxCell>
        <mxCell id="4qOC0WbRyg2mQ6TqrtUy-28" value="Set interest and hobbies" style="rounded=0;whiteSpace=wrap;html=1;" vertex="1" parent="1">
          <mxGeometry x="600" y="520" width="120" height="60" as="geometry" />
        </mxCell>
        <mxCell id="4qOC0WbRyg2mQ6TqrtUy-31" style="edgeStyle=orthogonalEdgeStyle;rounded=0;orthogonalLoop=1;jettySize=auto;html=1;" edge="1" parent="1" source="4qOC0WbRyg2mQ6TqrtUy-30">
          <mxGeometry relative="1" as="geometry">
            <mxPoint x="660" y="300" as="targetPoint" />
          </mxGeometry>
        </mxCell>
        <mxCell id="4qOC0WbRyg2mQ6TqrtUy-30" value="Add pictures" style="rounded=0;whiteSpace=wrap;html=1;" vertex="1" parent="1">
          <mxGeometry x="600" y="370" width="120" height="60" as="geometry" />
        </mxCell>
        <mxCell id="4qOC0WbRyg2mQ6TqrtUy-34" style="edgeStyle=orthogonalEdgeStyle;rounded=0;orthogonalLoop=1;jettySize=auto;html=1;entryX=0.5;entryY=1;entryDx=0;entryDy=0;" edge="1" parent="1" source="4qOC0WbRyg2mQ6TqrtUy-32" target="4qOC0WbRyg2mQ6TqrtUy-33">
          <mxGeometry relative="1" as="geometry" />
        </mxCell>
        <mxCell id="4qOC0WbRyg2mQ6TqrtUy-32" value="Account Posted" style="rounded=0;whiteSpace=wrap;html=1;" vertex="1" parent="1">
          <mxGeometry x="600" y="240" width="120" height="60" as="geometry" />
        </mxCell>
        <mxCell id="4qOC0WbRyg2mQ6TqrtUy-35" style="edgeStyle=orthogonalEdgeStyle;rounded=0;orthogonalLoop=1;jettySize=auto;html=1;" edge="1" parent="1" source="4qOC0WbRyg2mQ6TqrtUy-33">
          <mxGeometry relative="1" as="geometry">
            <mxPoint x="660" y="50" as="targetPoint" />
          </mxGeometry>
        </mxCell>
        <mxCell id="4qOC0WbRyg2mQ6TqrtUy-33" value="Use App freely" style="rounded=0;whiteSpace=wrap;html=1;" vertex="1" parent="1">
          <mxGeometry x="600" y="100" width="120" height="60" as="geometry" />
        </mxCell>
      </root>
    </mxGraphModel>
  </diagram>
</mxfile>
